<svg width="139" height="16" viewBox="0 0 139 16" fill="none" xmlns="http://www.w3.org/2000/svg">
<g clip-path="url(#clip0_549_2993)">
<path d="M1.14059 1.38508H8.57723C11.5428 1.38508 13.7783 3.36971 13.7783 6.33524C13.7783 9.30077 11.5428 11.1941 8.57723 11.1941H3.99206V14H1.14059V1.38508ZM3.99206 3.98562V8.59361H8.46317C9.92313 8.59361 10.9268 7.79519 10.9268 6.33524C10.9268 4.87528 9.92313 3.98562 8.46317 3.98562H3.99206ZM15.6207 1.38508H27.0722V3.96281H18.4722V6.28961H26.2054V8.86735H18.4722V11.3766H27.3916V14H15.6207V1.38508ZM29.5217 1.38508H36.9583C39.9238 1.38508 42.1594 3.36971 42.1594 6.33524C42.1594 8.27424 41.2013 9.7342 39.7185 10.5326L41.6575 14H38.5551L37.0724 11.1941H32.3731V14H29.5217V1.38508ZM32.3731 3.98562V8.59361H36.8442C38.3042 8.59361 39.3079 7.79519 39.3079 6.33524C39.3079 4.87528 38.3042 3.98562 36.8442 3.98562H32.3731ZM44.0018 1.38508H51.4384C54.404 1.38508 56.6395 3.36971 56.6395 6.33524C56.6395 9.30077 54.404 11.1941 51.4384 11.1941H46.8533V14H44.0018V1.38508ZM46.8533 3.98562V8.59361H51.3244C52.7843 8.59361 53.7881 7.79519 53.7881 6.33524C53.7881 4.87528 52.7843 3.98562 51.3244 3.98562H46.8533ZM58.4819 1.38508H61.3334V11.4223H70.0247V14H58.4819V1.38508ZM71.7814 1.38508H83.2329V3.96281H74.6329V6.28961H82.3661V8.86735H74.6329V11.3766H83.5523V14H71.7814V1.38508ZM85.3858 1.38508H88.625L91.9328 6.24399H92.7312L96.0389 1.38508H99.2781L95.058 7.36177L99.5291 14H96.2214L92.7768 8.79891H91.8871L88.4425 14H85.1348L89.6288 7.4302L85.3858 1.38508ZM101.254 1.38508H104.106V14H101.254V1.38508ZM105.922 1.38508H119.038V3.94H113.906V14H111.054V3.94H105.922V1.38508ZM120.402 1.38508H123.664L127.701 8.11456H127.884L131.785 1.38508H135.047L129.116 10.852V14H126.31V10.852L120.402 1.38508Z" fill="#28282B"/>
<path d="M136.137 10.2817C137.255 10.2817 138.167 11.1713 138.167 12.2891C138.167 13.4069 137.255 14.2281 136.137 14.2281C135.019 14.2281 134.13 13.4069 134.13 12.2891C134.13 11.1713 135.019 10.2817 136.137 10.2817Z" fill="#386FDE"/>
</g>
<defs>
<clipPath id="clip0_549_2993">
<rect width="139" height="16" fill="white"/>
</clipPath>
</defs>
</svg>
