<svg width="13" height="13" viewBox="0 0 13 13" fill="none" xmlns="http://www.w3.org/2000/svg">
<path d="M12.6667 2V3.33333H10.6667V5.33333H9.33333V3.33333H7.33333V2H9.33333V0H10.6667V2H12.6667ZM10.6667 11.3333H1.33333V2H5.33333V0.666667H1.33333C0.980036 0.667722 0.64151 0.808536 0.39169 1.05836C0.14187 1.30818 0.00105515 1.6467 0 2V11.3333C0.00105515 11.6866 0.14187 12.0252 0.39169 12.275C0.64151 12.5248 0.980036 12.6656 1.33333 12.6667H10.6667C11.02 12.6656 11.3585 12.5248 11.6083 12.275C11.8581 12.0252 11.9989 11.6866 12 11.3333V7.33333H10.6667V11.3333Z" fill="#28282B"/>
</svg>
