<svg width="21" height="21" viewBox="0 0 21 21" fill="none" xmlns="http://www.w3.org/2000/svg">
<path d="M11.0453 0.00212749C3.95317 -0.148521 -1.09318 7.73143 2.00753 14.1038C2.00738 14.1037 0.0385141 20.0772 0.0385141 20.0772C-0.152245 20.599 0.400863 21.1536 0.922168 20.9608C0.922148 20.9609 6.89572 18.9927 6.89572 18.9927C8.21126 19.5999 9.60539 19.9074 11.0453 19.9074C24.2444 19.3631 24.2482 0.548088 11.0453 0.00212749ZM11.0453 18.5078C9.72703 18.5078 8.45181 18.2068 7.25518 17.6129C7.0898 17.5316 6.89981 17.5179 6.72554 17.5753L1.80236 19.1974L3.42474 14.2745C3.48214 14.0999 3.46848 13.9092 3.38647 13.7445C2.79327 12.5476 2.4919 11.2724 2.4919 9.95477C2.4919 5.23865 6.32917 1.40172 11.0453 1.40172C22.3906 1.87121 22.3894 18.0392 11.0453 18.5078Z" fill="#28282B"/>
<path d="M14.6419 9.32048H11.68V6.35898C11.68 5.97252 11.367 5.65918 10.9802 5.65918C10.5934 5.65918 10.2804 5.97252 10.2804 6.35898V9.32048H7.31857C6.93177 9.32048 6.61877 9.63382 6.61877 10.0203C6.61877 10.4067 6.93177 10.7201 7.31857 10.7201H10.2804V13.6819C10.2804 14.0684 10.5934 14.3817 10.9802 14.3817C11.367 14.3817 11.68 14.0684 11.68 13.6819V10.7201H14.6419C15.0287 10.7201 15.3416 10.4067 15.3416 10.0203C15.3416 9.63381 15.0287 9.32048 14.6419 9.32048Z" fill="#28282B"/>
</svg>
