<svg width="10" height="10" viewBox="0 0 10 10" fill="none" xmlns="http://www.w3.org/2000/svg">
<path d="M8.80749 -0.000200258C8.9968 0.00066941 9.17811 0.0762588 9.31198 0.210124C9.44584 0.34399 9.52143 0.5253 9.5223 0.714613L9.5223 7.45814C9.52569 7.55413 9.50971 7.64982 9.47531 7.7395C9.44092 7.82919 9.38881 7.91102 9.3221 7.98013C9.25538 8.04924 9.17544 8.1042 9.08702 8.14174C8.99861 8.17928 8.90354 8.19863 8.80749 8.19863C8.71144 8.19863 8.61637 8.17928 8.52795 8.14174C8.43954 8.1042 8.35959 8.04924 8.29288 7.98013C8.22617 7.91102 8.17406 7.82919 8.13966 7.7395C8.10527 7.64982 8.08929 7.55413 8.09267 7.45813V2.44095L1.22103 9.3126C1.08689 9.44674 0.904959 9.5221 0.715261 9.5221C0.525562 9.5221 0.343634 9.44674 0.209497 9.3126C0.0753601 9.17847 2.2461e-06 8.99654 2.58327e-06 8.80684C2.58327e-06 8.61714 0.0753601 8.43521 0.209497 8.30108L7.08115 1.42943H2.06397C1.87875 1.42289 1.70331 1.34472 1.57459 1.21138C1.44587 1.07804 1.37394 0.899942 1.37394 0.714613C1.37394 0.529283 1.44587 0.351189 1.57459 0.21785C1.70331 0.0845102 1.87875 0.00633742 2.06397 -0.000200374L8.80749 -0.000200258Z" fill="#28282B"/>
</svg>
