<svg width="16" height="16" viewBox="0 0 16 16" fill="none" xmlns="http://www.w3.org/2000/svg">
<path d="M8 4H13.333C13.6996 4 14.0141 4.13032 14.2754 4.3916C14.5367 4.65287 14.6674 4.96691 14.667 5.33301V8.01953C14.2821 7.6749 13.8301 7.40422 13.333 7.22852V5.33301H7.4502L6.11621 4H2.66699V12H8.12598C8.25121 12.4866 8.46671 12.9366 8.75195 13.333H2.66699C2.30052 13.333 1.98639 13.203 1.72559 12.9424C1.46471 12.6815 1.33346 12.3671 1.33301 12V4C1.33301 3.63333 1.46425 3.31948 1.72559 3.05859C1.98688 2.79785 2.30087 2.66744 2.66699 2.66699H6.66699L8 4Z" fill="#28282B"/>
<path d="M12.6733 9.6665L12.6733 13.6665" stroke="#28282B" stroke-width="1.33333" stroke-linecap="round"/>
<path d="M14.6665 11.6733L10.6665 11.6733" stroke="#28282B" stroke-width="1.33333" stroke-linecap="round"/>
</svg>
