<svg width="13" height="13" viewBox="0 0 13 13" fill="none" xmlns="http://www.w3.org/2000/svg">
<path d="M11.75 0C11.9489 0 12.1397 0.0790177 12.2803 0.21967C12.421 0.360322 12.5 0.551087 12.5 0.75V6.875C12.5 7.04076 12.4342 7.19973 12.3169 7.31694C12.1997 7.43415 12.0408 7.5 11.875 7.5C11.7092 7.5 11.5503 7.43415 11.4331 7.31694C11.3158 7.19973 11.25 7.04076 11.25 6.875V2.13375L2.13375 11.25H6.875C7.04076 11.25 7.19973 11.3158 7.31694 11.4331C7.43415 11.5503 7.5 11.7092 7.5 11.875C7.5 12.0408 7.43415 12.1997 7.31694 12.3169C7.19973 12.4342 7.04076 12.5 6.875 12.5H0.75C0.551087 12.5 0.360322 12.421 0.21967 12.2803C0.0790177 12.1397 0 11.9489 0 11.75V5.625C0 5.45924 0.0658481 5.30027 0.183058 5.18306C0.300269 5.06585 0.45924 5 0.625 5C0.79076 5 0.949731 5.06585 1.06694 5.18306C1.18415 5.30027 1.25 5.45924 1.25 5.625V10.3663L10.3663 1.25H5.625C5.45924 1.25 5.30027 1.18415 5.18306 1.06694C5.06585 0.949731 5 0.79076 5 0.625C5 0.45924 5.06585 0.300269 5.18306 0.183058C5.30027 0.0658481 5.45924 0 5.625 0H11.75Z" fill="#28282B"/>
</svg>
