<svg width="11" height="11" viewBox="0 0 11 11" fill="none" xmlns="http://www.w3.org/2000/svg">
<path d="M9.93755 -1.92584e-06C10.1511 0.000979416 10.3557 0.0862671 10.5068 0.237307C10.6578 0.388347 10.7431 0.592919 10.7441 0.806519L10.7441 8.41522C10.7479 8.52353 10.7299 8.63149 10.6911 8.73268C10.6522 8.83387 10.5934 8.92621 10.5182 9.00418C10.4429 9.08216 10.3527 9.14417 10.2529 9.18653C10.1532 9.22888 10.0459 9.25071 9.93755 9.25071C9.82917 9.25071 9.72191 9.22888 9.62215 9.18652C9.52239 9.14417 9.43219 9.08216 9.35692 9.00418C9.28165 8.92621 9.22285 8.83387 9.18404 8.73268C9.14523 8.63149 9.1272 8.52352 9.13103 8.41522L9.13103 2.75435L1.37777 10.5076C1.22642 10.659 1.02115 10.744 0.807113 10.744C0.593077 10.744 0.387808 10.659 0.236462 10.5076C0.0851155 10.3563 8.98126e-05 10.151 8.98126e-05 9.93696C8.94755e-05 9.72292 0.0851155 9.51765 0.236462 9.3663L7.98972 1.61304L2.32885 1.61304C2.11988 1.60566 1.92192 1.51746 1.77669 1.36702C1.63146 1.21657 1.5503 1.01563 1.5503 0.806519C1.5503 0.597413 1.63146 0.39647 1.77669 0.246023C1.92192 0.095577 2.11988 0.00737473 2.32885 -1.7151e-06L9.93755 -1.92584e-06Z" fill="#FBFBFB"/>
</svg>
