<svg width="15" height="15" viewBox="0 0 15 15" fill="none" xmlns="http://www.w3.org/2000/svg">
<path d="M6.16216 10.2093L3.3335 7.37994L4.27616 6.43727L6.16216 8.3226L9.93283 4.55127L10.8762 5.4946L6.16216 10.2093Z" fill="#75757E"/>
<path fill-rule="evenodd" clip-rule="evenodd" d="M0 2.66667C0 1.95942 0.280952 1.28115 0.781049 0.781049C1.28115 0.280952 1.95942 0 2.66667 0H12C12.7072 0 13.3855 0.280952 13.8856 0.781049C14.3857 1.28115 14.6667 1.95942 14.6667 2.66667V12C14.6667 12.7072 14.3857 13.3855 13.8856 13.8856C13.3855 14.3857 12.7072 14.6667 12 14.6667H2.66667C1.95942 14.6667 1.28115 14.3857 0.781049 13.8856C0.280952 13.3855 0 12.7072 0 12V2.66667ZM2.66667 1.33333H12C12.3536 1.33333 12.6928 1.47381 12.9428 1.72386C13.1929 1.97391 13.3333 2.31304 13.3333 2.66667V12C13.3333 12.3536 13.1929 12.6928 12.9428 12.9428C12.6928 13.1929 12.3536 13.3333 12 13.3333H2.66667C2.31304 13.3333 1.97391 13.1929 1.72386 12.9428C1.47381 12.6928 1.33333 12.3536 1.33333 12V2.66667C1.33333 2.31304 1.47381 1.97391 1.72386 1.72386C1.97391 1.47381 2.31304 1.33333 2.66667 1.33333Z" fill="#75757E"/>
</svg>
