<svg width="16" height="16" viewBox="0 0 16 16" fill="none" xmlns="http://www.w3.org/2000/svg">
<g clip-path="url(#clip0_549_2984)">
<path d="M10.6665 10.6668C10.6665 9.93016 8.57717 9.3335 5.99984 9.3335M10.6665 10.6668C10.6665 11.4035 8.57717 12.0002 5.99984 12.0002C3.4225 12.0002 1.33317 11.4035 1.33317 10.6668M10.6665 10.6668V13.9582C10.6665 14.7175 8.57717 15.3335 5.99984 15.3335C3.4225 15.3335 1.33317 14.7182 1.33317 13.9582V10.6668M10.6665 10.6668C13.2158 10.6668 15.3332 10.0088 15.3332 9.3335V2.66683M5.99984 9.3335C3.4225 9.3335 1.33317 9.93016 1.33317 10.6668M5.99984 9.3335C3.0545 9.3335 0.666504 8.6755 0.666504 8.00016V4.66683M5.99984 3.3335C3.0545 3.3335 0.666504 3.93016 0.666504 4.66683M0.666504 4.66683C0.666504 5.4035 3.0545 6.00016 5.99984 6.00016C5.99984 6.6755 8.1685 7.3335 10.7178 7.3335C13.2672 7.3335 15.3332 6.6755 15.3332 6.00016M15.3332 2.66683C15.3332 1.93016 13.2665 1.3335 10.7178 1.3335C8.16917 1.3335 6.1025 1.93016 6.1025 2.66683M15.3332 2.66683C15.3332 3.4035 13.2665 4.00016 10.7178 4.00016C8.16917 4.00016 6.1025 3.4035 6.1025 2.66683M6.1025 2.66683V9.44416" stroke="#75757E" stroke-width="1.33333"/>
</g>
<defs>
<clipPath id="clip0_549_2984">
<rect width="16" height="16" fill="white"/>
</clipPath>
</defs>
</svg>
