<svg width="14" height="14" viewBox="0 0 14 14" fill="none" xmlns="http://www.w3.org/2000/svg">
<path d="M6.66667 0C2.98467 0 0 2.98467 0 6.66667C0 10.3487 2.98467 13.3333 6.66667 13.3333C10.3487 13.3333 13.3333 10.3487 13.3333 6.66667C13.3333 2.98467 10.3487 0 6.66667 0ZM5.38267 1.14667C6.22739 0.950152 7.10595 0.950152 7.95067 1.14667L6.668 1.91533L5.38267 1.14667ZM4.16267 1.582L6.168 2.782V4.244L4.30733 5.596L2.94467 5.12467L2.55333 2.76867C3.0152 2.28085 3.56012 1.87904 4.16267 1.582ZM1.72667 3.89L1.96533 5.328L1.01333 6.28C1.06955 5.44004 1.3133 4.62336 1.72667 3.89ZM1.08133 7.626L2.63267 6.07467L3.99267 6.54467L4.71333 8.76667L4.06667 9.81667L1.87133 9.68733C1.47518 9.05871 1.20719 8.3583 1.08133 7.626ZM2.72733 10.7393L3.99667 10.814L4.44667 11.882C3.80819 11.6097 3.22584 11.2224 2.72733 10.7393ZM5.686 12.2487L4.89667 10.376L5.53867 9.33133H7.78667L8.39467 10.3853L7.70133 12.2387C7.03542 12.361 6.3531 12.3644 5.686 12.2487ZM8.906 11.8733L9.284 10.862L10.3973 10.932C9.95219 11.3217 9.44876 11.6394 8.90533 11.8733M11.26 9.984L9.244 9.85733L8.61867 8.77467L9.34333 6.54467L10.6853 6.08067L12.2267 7.76067C12.0686 8.56284 11.7388 9.3213 11.26 9.984ZM12.3253 6.39L11.3653 5.34333L11.6067 3.89133C12.0378 4.65679 12.2839 5.51247 12.3253 6.39ZM10.78 2.77L10.3873 5.126L9.02733 5.596L7.16667 4.244V2.78133L9.168 1.58133C9.7717 1.8789 10.3176 2.28097 10.78 2.77ZM4.97667 6.34533L6.66667 5.11733L8.35667 6.34533L7.71133 8.332H5.622L4.97667 6.34533Z" fill="#75757E"/>
</svg>
